<svg width="32" height="33" viewBox="0 0 32 33" fill="none" xmlns="http://www.w3.org/2000/svg">
<mask id="mask0_3_260" style="mask-type:alpha" maskUnits="userSpaceOnUse" x="0" y="0" width="32" height="33">
<rect y="0.5" width="32" height="32" fill="#D9D9D9"/>
</mask>
<g mask="url(#mask0_3_260)">
<path d="M27.9332 30.3334L23.9998 26.4001V29.3667H21.3332V21.8334H28.8665V24.5001H25.8665L29.7998 28.4334L27.9332 30.3334ZM15.9998 29.8334C14.1554 29.8334 12.4221 29.4834 10.7998 28.7834C9.17761 28.0834 7.7665 27.1334 6.5665 25.9334C5.3665 24.7334 4.4165 23.3223 3.7165 21.7001C3.0165 20.0778 2.6665 18.3445 2.6665 16.5001C2.6665 14.6556 3.0165 12.9223 3.7165 11.3001C4.4165 9.67783 5.3665 8.26672 6.5665 7.06672C7.7665 5.86672 9.17761 4.91672 10.7998 4.21672C12.4221 3.51672 14.1554 3.16672 15.9998 3.16672C17.8443 3.16672 19.5776 3.51672 21.1998 4.21672C22.8221 4.91672 24.2332 5.86672 25.4332 7.06672C26.6332 8.26672 27.5832 9.67783 28.2832 11.3001C28.9832 12.9223 29.3332 14.6556 29.3332 16.5001C29.3332 16.9445 29.3109 17.3889 29.2665 17.8334C29.2221 18.2778 29.1554 18.7223 29.0665 19.1667H26.3332C26.4443 18.7223 26.5276 18.2778 26.5832 17.8334C26.6387 17.3889 26.6665 16.9445 26.6665 16.5001C26.6665 16.0556 26.6387 15.6112 26.5832 15.1667C26.5276 14.7223 26.4443 14.2778 26.3332 13.8334H21.7998C21.8665 14.2778 21.9165 14.7223 21.9498 15.1667C21.9832 15.6112 21.9998 16.0556 21.9998 16.5001C21.9998 16.9445 21.9832 17.3889 21.9498 17.8334C21.9165 18.2778 21.8665 18.7223 21.7998 19.1667H19.1332C19.1998 18.7223 19.2498 18.2778 19.2832 17.8334C19.3165 17.3889 19.3332 16.9445 19.3332 16.5001C19.3332 16.0556 19.3165 15.6112 19.2832 15.1667C19.2498 14.7223 19.1998 14.2778 19.1332 13.8334H12.8665C12.7998 14.2778 12.7498 14.7223 12.7165 15.1667C12.6832 15.6112 12.6665 16.0556 12.6665 16.5001C12.6665 16.9445 12.6832 17.3889 12.7165 17.8334C12.7498 18.2778 12.7998 18.7223 12.8665 19.1667H17.3332V21.8334H13.4665C13.7332 22.7889 14.0776 23.7056 14.4998 24.5834C14.9221 25.4612 15.4221 26.3001 15.9998 27.1001C16.4443 27.1001 16.8887 27.0723 17.3332 27.0167C17.7776 26.9612 18.2221 26.9112 18.6665 26.8667V29.6001C18.2221 29.6445 17.7776 29.6945 17.3332 29.7501C16.8887 29.8056 16.4443 29.8334 15.9998 29.8334ZM5.6665 19.1667H10.1998C10.1332 18.7223 10.0832 18.2778 10.0498 17.8334C10.0165 17.3889 9.99984 16.9445 9.99984 16.5001C9.99984 16.0556 10.0165 15.6112 10.0498 15.1667C10.0832 14.7223 10.1332 14.2778 10.1998 13.8334H5.6665C5.55539 14.2778 5.47206 14.7223 5.4165 15.1667C5.36095 15.6112 5.33317 16.0556 5.33317 16.5001C5.33317 16.9445 5.36095 17.3889 5.4165 17.8334C5.47206 18.2778 5.55539 18.7223 5.6665 19.1667ZM6.79984 11.1667H10.7332C10.9332 10.3445 11.1832 9.53894 11.4832 8.75005C11.7832 7.96116 12.1332 7.18894 12.5332 6.43338C11.3109 6.83338 10.2109 7.43894 9.23317 8.25005C8.25539 9.06116 7.44428 10.0334 6.79984 11.1667ZM12.5332 26.5667C12.1332 25.8112 11.7832 25.0389 11.4832 24.2501C11.1832 23.4612 10.9332 22.6556 10.7332 21.8334H6.79984C7.44428 22.9667 8.25539 23.9389 9.23317 24.7501C10.2109 25.5612 11.3109 26.1667 12.5332 26.5667ZM13.4665 11.1667H18.5332C18.2665 10.2112 17.9221 9.2945 17.4998 8.41672C17.0776 7.53894 16.5776 6.70005 15.9998 5.90005C15.4221 6.70005 14.9221 7.53894 14.4998 8.41672C14.0776 9.2945 13.7332 10.2112 13.4665 11.1667ZM21.2665 11.1667H25.1998C24.5554 10.0334 23.7443 9.06116 22.7665 8.25005C21.7887 7.43894 20.6887 6.83338 19.4665 6.43338C19.8665 7.18894 20.2165 7.96116 20.5165 8.75005C20.8165 9.53894 21.0665 10.3445 21.2665 11.1667Z" fill="#252624"/>
</g>
</svg>
