<svg width="65" height="64" viewBox="0 0 65 64" fill="none" xmlns="http://www.w3.org/2000/svg">
<rect x="0.5" width="64" height="64" rx="32" fill="#F3F4EF"/>
<mask id="mask0_3_174" style="mask-type:alpha" maskUnits="userSpaceOnUse" x="16" y="16" width="33" height="32">
<rect x="16.5" y="16" width="32" height="32" fill="#D9D9D9"/>
</mask>
<g mask="url(#mask0_3_174)">
<path d="M21.8335 41.3333V38.6667H24.5002V29.3333C24.5002 27.4889 25.0557 25.85 26.1668 24.4167C27.2779 22.9833 28.7224 22.0444 30.5002 21.6V20.6667C30.5002 20.1111 30.6946 19.6389 31.0835 19.25C31.4724 18.8611 31.9446 18.6667 32.5002 18.6667C33.0557 18.6667 33.5279 18.8611 33.9168 19.25C34.3057 19.6389 34.5002 20.1111 34.5002 20.6667V21.6C36.2779 22.0444 37.7224 22.9833 38.8335 24.4167C39.9446 25.85 40.5002 27.4889 40.5002 29.3333V38.6667H43.1668V41.3333H21.8335ZM32.5002 45.3333C31.7668 45.3333 31.1391 45.0722 30.6168 44.55C30.0946 44.0278 29.8335 43.4 29.8335 42.6667H35.1668C35.1668 43.4 34.9057 44.0278 34.3835 44.55C33.8613 45.0722 33.2335 45.3333 32.5002 45.3333ZM27.1668 38.6667H37.8335V29.3333C37.8335 27.8667 37.3113 26.6111 36.2668 25.5667C35.2224 24.5222 33.9668 24 32.5002 24C31.0335 24 29.7779 24.5222 28.7335 25.5667C27.6891 26.6111 27.1668 27.8667 27.1668 29.3333V38.6667Z" fill="#252624"/>
</g>
</svg>
