<svg width="32" height="32" viewBox="0 0 32 32" fill="none" xmlns="http://www.w3.org/2000/svg">
<mask id="mask0_3_216" style="mask-type:alpha" maskUnits="userSpaceOnUse" x="0" y="0" width="32" height="32">
<rect width="32" height="32" fill="#D9D9D9"/>
</mask>
<g mask="url(#mask0_3_216)">
<path d="M15.9998 29.3333C14.1776 29.3333 12.4554 28.9833 10.8332 28.2833C9.21095 27.5833 7.79428 26.6278 6.58317 25.4166C5.37206 24.2055 4.4165 22.7889 3.7165 21.1666C3.0165 19.5444 2.6665 17.8222 2.6665 16C2.6665 14.1555 3.0165 12.4278 3.7165 10.8166C4.4165 9.20553 5.37206 7.79442 6.58317 6.58331C7.79428 5.3722 9.21095 4.41664 10.8332 3.71664C12.4554 3.01664 14.1776 2.66664 15.9998 2.66664C17.8443 2.66664 19.5721 3.01664 21.1832 3.71664C22.7943 4.41664 24.2054 5.3722 25.4165 6.58331C26.6276 7.79442 27.5832 9.20553 28.2832 10.8166C28.9832 12.4278 29.3332 14.1555 29.3332 16C29.3332 17.8222 28.9832 19.5444 28.2832 21.1666C27.5832 22.7889 26.6276 24.2055 25.4165 25.4166C24.2054 26.6278 22.7943 27.5833 21.1832 28.2833C19.5721 28.9833 17.8443 29.3333 15.9998 29.3333ZM15.9998 26.6C16.5776 25.8 17.0776 24.9666 17.4998 24.1C17.9221 23.2333 18.2665 22.3111 18.5332 21.3333H13.4665C13.7332 22.3111 14.0776 23.2333 14.4998 24.1C14.9221 24.9666 15.4221 25.8 15.9998 26.6ZM12.5332 26.0666C12.1332 25.3333 11.7832 24.5722 11.4832 23.7833C11.1832 22.9944 10.9332 22.1778 10.7332 21.3333H6.79984C7.44428 22.4444 8.24984 23.4111 9.2165 24.2333C10.1832 25.0555 11.2887 25.6666 12.5332 26.0666ZM19.4665 26.0666C20.7109 25.6666 21.8165 25.0555 22.7832 24.2333C23.7498 23.4111 24.5554 22.4444 25.1998 21.3333H21.2665C21.0665 22.1778 20.8165 22.9944 20.5165 23.7833C20.2165 24.5722 19.8665 25.3333 19.4665 26.0666ZM5.6665 18.6666H10.1998C10.1332 18.2222 10.0832 17.7833 10.0498 17.35C10.0165 16.9166 9.99984 16.4666 9.99984 16C9.99984 15.5333 10.0165 15.0833 10.0498 14.65C10.0832 14.2166 10.1332 13.7778 10.1998 13.3333H5.6665C5.55539 13.7778 5.47206 14.2166 5.4165 14.65C5.36095 15.0833 5.33317 15.5333 5.33317 16C5.33317 16.4666 5.36095 16.9166 5.4165 17.35C5.47206 17.7833 5.55539 18.2222 5.6665 18.6666ZM12.8665 18.6666H19.1332C19.1998 18.2222 19.2498 17.7833 19.2832 17.35C19.3165 16.9166 19.3332 16.4666 19.3332 16C19.3332 15.5333 19.3165 15.0833 19.2832 14.65C19.2498 14.2166 19.1998 13.7778 19.1332 13.3333H12.8665C12.7998 13.7778 12.7498 14.2166 12.7165 14.65C12.6832 15.0833 12.6665 15.5333 12.6665 16C12.6665 16.4666 12.6832 16.9166 12.7165 17.35C12.7498 17.7833 12.7998 18.2222 12.8665 18.6666ZM21.7998 18.6666H26.3332C26.4443 18.2222 26.5276 17.7833 26.5832 17.35C26.6387 16.9166 26.6665 16.4666 26.6665 16C26.6665 15.5333 26.6387 15.0833 26.5832 14.65C26.5276 14.2166 26.4443 13.7778 26.3332 13.3333H21.7998C21.8665 13.7778 21.9165 14.2166 21.9498 14.65C21.9832 15.0833 21.9998 15.5333 21.9998 16C21.9998 16.4666 21.9832 16.9166 21.9498 17.35C21.9165 17.7833 21.8665 18.2222 21.7998 18.6666ZM21.2665 10.6666H25.1998C24.5554 9.55553 23.7498 8.58886 22.7832 7.76664C21.8165 6.94442 20.7109 6.33331 19.4665 5.93331C19.8665 6.66664 20.2165 7.42775 20.5165 8.21664C20.8165 9.00553 21.0665 9.8222 21.2665 10.6666ZM13.4665 10.6666H18.5332C18.2665 9.68886 17.9221 8.76664 17.4998 7.89997C17.0776 7.03331 16.5776 6.19997 15.9998 5.39997C15.4221 6.19997 14.9221 7.03331 14.4998 7.89997C14.0776 8.76664 13.7332 9.68886 13.4665 10.6666ZM6.79984 10.6666H10.7332C10.9332 9.8222 11.1832 9.00553 11.4832 8.21664C11.7832 7.42775 12.1332 6.66664 12.5332 5.93331C11.2887 6.33331 10.1832 6.94442 9.2165 7.76664C8.24984 8.58886 7.44428 9.55553 6.79984 10.6666Z" fill="#252624"/>
</g>
</svg>
