<svg width="32" height="32" viewBox="0 0 32 32" fill="none" xmlns="http://www.w3.org/2000/svg">
<mask id="mask0_3_211" style="mask-type:alpha" maskUnits="userSpaceOnUse" x="0" y="0" width="32" height="32">
<rect width="32" height="32" fill="#D9D9D9"/>
</mask>
<g mask="url(#mask0_3_211)">
<path d="M5.33317 26.6667C4.59984 26.6667 3.97206 26.4056 3.44984 25.8834C2.92762 25.3611 2.6665 24.7334 2.6665 24V8.00003C2.6665 7.26669 2.92762 6.63891 3.44984 6.11669C3.97206 5.59447 4.59984 5.33336 5.33317 5.33336H26.6665C27.3998 5.33336 28.0276 5.59447 28.5498 6.11669C29.0721 6.63891 29.3332 7.26669 29.3332 8.00003V24C29.3332 24.7334 29.0721 25.3611 28.5498 25.8834C28.0276 26.4056 27.3998 26.6667 26.6665 26.6667H5.33317ZM15.9998 17.3334L5.33317 10.6667V24H26.6665V10.6667L15.9998 17.3334ZM15.9998 14.6667L26.6665 8.00003H5.33317L15.9998 14.6667ZM5.33317 10.6667V8.00003V24V10.6667Z" fill="#252624"/>
</g>
</svg>
