<svg width="26" height="22" viewBox="0 0 26 22" fill="none" xmlns="http://www.w3.org/2000/svg">
<path d="M20.6668 22C19.2668 22 18.0835 21.5167 17.1168 20.55C16.1502 19.5833 15.6668 18.4 15.6668 17C15.6668 15.6 16.1502 14.4167 17.1168 13.45C18.0835 12.4833 19.2668 12 20.6668 12C22.0668 12 23.2502 12.4833 24.2168 13.45C25.1835 14.4167 25.6668 15.6 25.6668 17C25.6668 18.4 25.1835 19.5833 24.2168 20.55C23.2502 21.5167 22.0668 22 20.6668 22ZM20.6668 19.3333C21.3113 19.3333 21.8613 19.1056 22.3168 18.65C22.7724 18.1944 23.0002 17.6444 23.0002 17C23.0002 16.3556 22.7724 15.8056 22.3168 15.35C21.8613 14.8944 21.3113 14.6667 20.6668 14.6667C20.0224 14.6667 19.4724 14.8944 19.0168 15.35C18.5613 15.8056 18.3335 16.3556 18.3335 17C18.3335 17.6444 18.5613 18.1944 19.0168 18.65C19.4724 19.1056 20.0224 19.3333 20.6668 19.3333ZM2.3335 18.3333V15.6667H13.0002V18.3333H2.3335ZM5.3335 10C3.9335 10 2.75016 9.51667 1.7835 8.55C0.816829 7.58333 0.333496 6.4 0.333496 5C0.333496 3.6 0.816829 2.41667 1.7835 1.45C2.75016 0.483333 3.9335 0 5.3335 0C6.7335 0 7.91683 0.483333 8.8835 1.45C9.85016 2.41667 10.3335 3.6 10.3335 5C10.3335 6.4 9.85016 7.58333 8.8835 8.55C7.91683 9.51667 6.7335 10 5.3335 10ZM5.3335 7.33333C5.97794 7.33333 6.52794 7.10556 6.9835 6.65C7.43905 6.19444 7.66683 5.64444 7.66683 5C7.66683 4.35556 7.43905 3.80556 6.9835 3.35C6.52794 2.89444 5.97794 2.66667 5.3335 2.66667C4.68905 2.66667 4.13905 2.89444 3.6835 3.35C3.22794 3.80556 3.00016 4.35556 3.00016 5C3.00016 5.64444 3.22794 6.19444 3.6835 6.65C4.13905 7.10556 4.68905 7.33333 5.3335 7.33333ZM13.0002 6.33333V3.66667H23.6668V6.33333H13.0002Z" fill="#252624"/>
</svg>
