<svg width="65" height="64" viewBox="0 0 65 64" fill="none" xmlns="http://www.w3.org/2000/svg">
<rect x="0.5" width="64" height="64" rx="32" fill="#F3F4EF"/>
<mask id="mask0_3_169" style="mask-type:alpha" maskUnits="userSpaceOnUse" x="16" y="16" width="33" height="32">
<rect x="16.5" y="16" width="32" height="32" fill="#D9D9D9"/>
</mask>
<g mask="url(#mask0_3_169)">
<path d="M24.4998 34.6667H35.1665V32H24.4998V34.6667ZM24.4998 30.6667H40.4998V28H24.4998V30.6667ZM24.4998 26.6667H40.4998V24H24.4998V26.6667ZM19.1665 45.3333V21.3333C19.1665 20.6 19.4276 19.9722 19.9498 19.45C20.4721 18.9278 21.0998 18.6667 21.8332 18.6667H43.1665C43.8998 18.6667 44.5276 18.9278 45.0498 19.45C45.5721 19.9722 45.8332 20.6 45.8332 21.3333V37.3333C45.8332 38.0667 45.5721 38.6944 45.0498 39.2167C44.5276 39.7389 43.8998 40 43.1665 40H24.4998L19.1665 45.3333ZM23.3665 37.3333H43.1665V21.3333H21.8332V38.8333L23.3665 37.3333Z" fill="#1C1B1F"/>
</g>
</svg>
